<svg xmlns="http://www.w3.org/2000/svg" viewBox="213.87 433.08 238 257.27"><defs><style>.cls-4{fill:#fe2bf1}</style></defs><g id="Hand_icons" data-name="Hand icons"><path class="cls-4" d="M394.37 513.1v-53.4a26.59 26.59 0 0 0-53.18 0v51.93h46.9a14.26 14.26 0 0 1 6.28 1.47ZM271.35 511.63v-53.95a22.22 22.22 0 0 0-44.44 0v66.48a56.21 56.21 0 0 1 35.42-12.53ZM427.1 567.16a32.72 32.72 0 0 1-28.31-16.37 49.65 49.65 0 0 1-46 31.11h-33.24a54.64 54.64 0 0 1 26.2 46.63v15a4 4 0 0 1-8 0v-15a46.69 46.69 0 0 0-46.63-46.63h-.71a4 4 0 0 1-4-4 4 4 0 0 1 4-4h62.39a41.61 41.61 0 0 0 41.57-41.56v-6.43a6.28 6.28 0 0 0-6.28-6.28H262.33a48.4 48.4 0 0 0-36.94 17.13c-.67.79-1.33 1.59-1.94 2.42l-.74 1c-.61.86-1.2 1.73-1.75 2.63l-.52.89c-.56 1-1.09 1.94-1.59 2.93l-.24.49a45.97 45.97 0 0 0-1.52 3.54l-.19.47a51.58 51.58 0 0 0-1.21 3.7c0 .16-.09.32-.13.48a45.66 45.66 0 0 0-.88 3.81l-.09.5c-.23 1.29-.41 2.6-.53 3.91v.46a50.66 50.66 0 0 0-.18 4.09c0 3.3.16 6.55.42 9.78 5 62.85 57.71 112.46 121.82 112.46h14.54a101.33 101.33 0 0 0 101.18-101.17v-33.34a32.65 32.65 0 0 1-24.74 11.35ZM333.19 460a26.92 26.92 0 0 0-53.84 0v51.6h53.84Z"/><path class="cls-4" d="M427.1 472.09a24.76 24.76 0 0 0-24.73 24.74v37.6a24.74 24.74 0 0 0 49.47 0v-37.6a24.77 24.77 0 0 0-24.74-24.74Z"/></g></svg>