<svg xmlns="http://www.w3.org/2000/svg" viewBox="1124.93 323.08 228.55 367.33"><defs><style>.cls-2{fill:#0c7ceb}</style></defs><g id="Hand_icons" data-name="Hand icons"><path d="M1200 525.58h40v-43.84a32.24 32.24 0 0 1 10.14-23.46l15.31-108.93a22.69 22.69 0 0 0-44.93-6.31l-21.22 145.52a4 4 0 0 1-7.92 0l-21.27-145.93a22.68 22.68 0 1 0-44.93 6.3c5.87 43.8 10.31 75.05 13.56 97.87 8.22 57.79 9.61 67.63 9.85 108.53a59.4 59.4 0 0 1 51.41-29.75Z" class="cls-2"/><path class="cls-2" d="M1329.09 574.39a32.36 32.36 0 0 1-27-14.54 44.76 44.76 0 0 1-41.89 29.1h-16a51.39 51.39 0 0 1 23.89 43.37v14a4 4 0 0 1-8 0v-14a43.42 43.42 0 0 0-43.4-43.32 4 4 0 0 1-4-4 4 4 0 0 1 4-4h43.52a36.54 36.54 0 0 0 23.73-8.74 37.09 37.09 0 0 0 8.16-9.85 36.4 36.4 0 0 0 4.77-17.28v-.82a10 10 0 0 0-.17-1.66v-.39a10.7 10.7 0 0 0-10.48-8.63H1200a51.44 51.44 0 0 0-51.36 51.37c0 30.59 11.51 58.23 32.4 77.82a103 103 0 0 0 76.84 27.37c53.59-3.47 95.58-50 95.58-105.84v-21a32.29 32.29 0 0 1-24.37 11.04Z"/><path class="cls-2" d="M1329.09 483a24.41 24.41 0 0 0-24.38 24.38v34.32a18.18 18.18 0 0 1 .2 2.57v.61a24.36 24.36 0 0 0 48.56-2.85v-34.66a24.4 24.4 0 0 0-24.38-24.37ZM1264.46 458.7q-.54.18-1 .39c-.35.14-.7.28-1 .44s-.72.33-1.07.51l-.92.49c-.38.21-.75.44-1.11.68s-.52.32-.78.5-.77.56-1.14.86c-.22.17-.44.33-.65.51a24.33 24.33 0 0 0-8.74 18.66v43.84h38.27a18.51 18.51 0 0 1 10.48 3.23v-47.07a24.4 24.4 0 0 0-21.88-24.24 22.81 22.81 0 0 0-2.49-.13 22.24 22.24 0 0 0-2.32.12c-.31 0-.62.08-.92.12s-.9.12-1.34.21l-1.09.24c-.36.08-.74.18-1.11.29Z"/></g></svg>